{
	"asset":{
		"generator":"Khronos glTF Blender I/O v4.3.47",
		"version":"2.0"
	},
	"extensionsUsed":[
		"KHR_materials_specular"
	],
	"scene":0,
	"scenes":[
		{
			"name":"Scene",
			"nodes":[
				0
			]
		}
	],
	"nodes":[
		{
			"mesh":0,
			"name":"ENVIRO W TEXT",
			"rotation":[
				0.33488667011260986,
				-0.14682121574878693,
				0.03598150238394737,
				0.9300537705421448
			],
			"translation":[
				-0.1928969770669937,
				2.3048269748687744,
				0.023900678381323814
			]
		}
	],
	"materials":[
		{
			"doubleSided":true,
			"extensions":{
				"KHR_materials_specular":{
					"specularFactor":0
				}
			},
			"name":"ENVIRO_W_TEXT",
			"pbrMetallicRoughness":{
				"baseColorTexture":{
					"index":0
				},
				"metallicFactor":0
			}
		},
		{
			"doubleSided":true,
			"extensions":{
				"KHR_materials_specular":{
					"specularFactor":0
				}
			},
			"name":"ENVIRO_W_TEXT1",
			"pbrMetallicRoughness":{
				"baseColorTexture":{
					"index":1
				},
				"metallicFactor":0
			}
		}
	],
	"meshes":[
		{
			"name":"ENVIRO W TEXT",
			"primitives":[
				{
					"attributes":{
						"POSITION":0,
						"NORMAL":1,
						"TEXCOORD_0":2,
						"COLOR_0":3,
						"COLOR_1":4
					},
					"indices":5,
					"material":0
				},
				{
					"attributes":{
						"POSITION":6,
						"NORMAL":7,
						"TEXCOORD_0":8,
						"COLOR_0":9,
						"COLOR_1":10
					},
					"indices":11,
					"material":1
				}
			]
		}
	],
	"textures":[
		{
			"sampler":0,
			"source":0
		},
		{
			"sampler":0,
			"source":1
		}
	],
	"images":[
		{
			"mimeType":"image/jpeg",
			"name":"ENVIRO W TEXT",
			"uri":"ENVIRO%20W%20TEXT.jpg"
		},
		{
			"mimeType":"image/jpeg",
			"name":"ENVIRO W TEXT1",
			"uri":"ENVIRO%20W%20TEXT1.jpg"
		}
	],
	"accessors":[
		{
			"bufferView":0,
			"componentType":5126,
			"count":1051172,
			"max":[
				1.6882250308990479,
				-2.4277560710906982,
				0.27910199761390686
			],
			"min":[
				-2.1204798221588135,
				-4.349250793457031,
				-2.8832991123199463
			],
			"type":"VEC3"
		},
		{
			"bufferView":1,
			"componentType":5126,
			"count":1051172,
			"type":"VEC3"
		},
		{
			"bufferView":2,
			"componentType":5126,
			"count":1051172,
			"type":"VEC2"
		},
		{
			"bufferView":3,
			"componentType":5121,
			"count":1051172,
			"normalized":true,
			"type":"VEC4"
		},
		{
			"bufferView":4,
			"componentType":5123,
			"count":1051172,
			"normalized":true,
			"type":"VEC4"
		},
		{
			"bufferView":5,
			"componentType":5125,
			"count":1201542,
			"type":"SCALAR"
		},
		{
			"bufferView":6,
			"componentType":5126,
			"count":977625,
			"max":[
				1.676334023475647,
				-2.4699690341949463,
				0.27910199761390686
			],
			"min":[
				-2.0412139892578125,
				-4.338213920593262,
				-3.119882106781006
			],
			"type":"VEC3"
		},
		{
			"bufferView":7,
			"componentType":5126,
			"count":977625,
			"type":"VEC3"
		},
		{
			"bufferView":8,
			"componentType":5126,
			"count":977625,
			"type":"VEC2"
		},
		{
			"bufferView":9,
			"componentType":5121,
			"count":977625,
			"normalized":true,
			"type":"VEC4"
		},
		{
			"bufferView":10,
			"componentType":5123,
			"count":977625,
			"normalized":true,
			"type":"VEC4"
		},
		{
			"bufferView":11,
			"componentType":5125,
			"count":1125810,
			"type":"SCALAR"
		}
	],
	"bufferViews":[
		{
			"buffer":0,
			"byteLength":12614064,
			"byteOffset":0,
			"target":34962
		},
		{
			"buffer":0,
			"byteLength":12614064,
			"byteOffset":12614064,
			"target":34962
		},
		{
			"buffer":0,
			"byteLength":8409376,
			"byteOffset":25228128,
			"target":34962
		},
		{
			"buffer":0,
			"byteLength":4204688,
			"byteOffset":33637504,
			"target":34962
		},
		{
			"buffer":0,
			"byteLength":8409376,
			"byteOffset":37842192,
			"target":34962
		},
		{
			"buffer":0,
			"byteLength":4806168,
			"byteOffset":46251568,
			"target":34963
		},
		{
			"buffer":0,
			"byteLength":11731500,
			"byteOffset":51057736,
			"target":34962
		},
		{
			"buffer":0,
			"byteLength":11731500,
			"byteOffset":62789236,
			"target":34962
		},
		{
			"buffer":0,
			"byteLength":7821000,
			"byteOffset":74520736,
			"target":34962
		},
		{
			"buffer":0,
			"byteLength":3910500,
			"byteOffset":82341736,
			"target":34962
		},
		{
			"buffer":0,
			"byteLength":7821000,
			"byteOffset":86252236,
			"target":34962
		},
		{
			"buffer":0,
			"byteLength":4503240,
			"byteOffset":94073236,
			"target":34963
		}
	],
	"samplers":[
		{
			"magFilter":9729,
			"minFilter":9987
		}
	],
	"buffers":[
		{
			"byteLength":98576476,
			"uri":"FULLLCOMP1.bin"
		}
	]
}
