{
	"asset":{
		"generator":"Khronos glTF Blender I/O v4.0.44",
		"version":"2.0"
	},
	"scene":0,
	"scenes":[
		{
			"name":"Scene",
			"nodes":[
				0,
				1,
				2,
				3,
				4,
				5,
				6,
				7,
				8,
				9,
				10,
				11
			]
		}
	],
	"nodes":[
		{
			"name":"Cube",
			"scale":[
				0.1784881353378296,
				0.6416260600090027,
				1
			]
		},
		{
			"mesh":0,
			"name":"Cube.003",
			"scale":[
				0.5301790833473206,
				0.6571088433265686,
				0.5301790833473206
			],
			"translation":[
				0.15138769149780273,
				1.9477990865707397,
				-0.5314493179321289
			]
		},
		{
			"mesh":1,
			"name":"Cube.001",
			"scale":[
				0.3638458251953125,
				0.3638458251953125,
				0.3638458251953125
			],
			"translation":[
				0.1535964012145996,
				3.7103898525238037,
				-0.55616295337677
			]
		},
		{
			"mesh":2,
			"name":"Cube.002",
			"scale":[
				0.09016885608434677,
				0.12597957253456116,
				0.09016885608434677
			],
			"translation":[
				0.1535964012145996,
				3.289184331893921,
				-0.55616295337677
			]
		},
		{
			"mesh":3,
			"name":"Cube.005",
			"scale":[
				0.1722613424062729,
				0.1722613424062729,
				0.1722613424062729
			],
			"translation":[
				0.16160649061203003,
				1.1452245712280273,
				0.36426475644111633
			]
		},
		{
			"mesh":4,
			"name":"Cube.006",
			"scale":[
				0.09016886353492737,
				0.25483012199401855,
				0.09016886353492737
			],
			"translation":[
				0.13498364388942719,
				2.4446611404418945,
				-1.3793615102767944
			]
		},
		{
			"mesh":5,
			"name":"Cube.007",
			"scale":[
				0.1722613424062729,
				0.1722613424062729,
				0.1722613424062729
			],
			"translation":[
				0.1429937332868576,
				1.1492929458618164,
				-1.3565527200698853
			]
		},
		{
			"mesh":6,
			"name":"Cube.008",
			"scale":[
				0.09016886353492737,
				0.25483012199401855,
				0.09016886353492737
			],
			"translation":[
				0.13498364388942719,
				2.4446611404418945,
				0.308574914932251
			]
		},
		{
			"mesh":7,
			"name":"Circle",
			"rotation":[
				0,
				0,
				-0.7071067690849304,
				0.7071068286895752
			],
			"scale":[
				-0.0905919075012207,
				-0.0905919075012207,
				-0.0905919075012207
			],
			"translation":[
				0.4060834050178528,
				3.8575568199157715,
				-0.7252817153930664
			]
		},
		{
			"mesh":8,
			"name":"Circle.001",
			"rotation":[
				0,
				0,
				-0.7071067690849304,
				0.7071068286895752
			],
			"scale":[
				-0.0905919075012207,
				-0.0905919075012207,
				-0.0905919075012207
			],
			"translation":[
				0.4060834050178528,
				3.8575568199157715,
				-0.4731743037700653
			]
		},
		{
			"mesh":9,
			"name":"Sphere",
			"scale":[
				0.9874290227890015,
				0.9874290227890015,
				0.9874290227890015
			],
			"translation":[
				0.11813545227050781,
				4.0743021965026855,
				-0.6206440925598145
			]
		},
		{
			"mesh":10,
			"name":"Cube.009",
			"scale":[
				0.04590136557817459,
				0.04590136557817459,
				0.1018727645277977
			],
			"translation":[
				0.5174877643585205,
				3.5290918350219727,
				-0.58650803565979
			]
		}
	],
	"materials":[
		{
			"doubleSided":true,
			"name":"Material.002",
			"pbrMetallicRoughness":{
				"baseColorFactor":[
					0.03443940356373787,
					0.07486096769571304,
					0.8936126232147217,
					1
				],
				"metallicFactor":0
			}
		},
		{
			"doubleSided":true,
			"name":"skin",
			"pbrMetallicRoughness":{
				"baseColorFactor":[
					0.8002434968948364,
					0.30982324481010437,
					0.26126399636268616,
					1
				],
				"metallicFactor":0,
				"roughnessFactor":0.8168317079544067
			}
		},
		{
			"doubleSided":true,
			"name":"skin.002",
			"pbrMetallicRoughness":{
				"baseColorFactor":[
					0.7992379665374756,
					0.30945533514022827,
					0.2622317671775818,
					1
				],
				"metallicFactor":0
			}
		},
		{
			"doubleSided":true,
			"name":"skin.001",
			"pbrMetallicRoughness":{
				"baseColorFactor":[
					0.7992379665374756,
					0.30945533514022827,
					0.2622317671775818,
					0.7623762488365173
				],
				"metallicFactor":0,
				"roughnessFactor":0.5
			}
		},
		{
			"doubleSided":true,
			"name":"Material.004",
			"pbrMetallicRoughness":{
				"baseColorFactor":[
					0.0033035511150956154,
					0.0033035511150956154,
					0.0033035511150956154,
					1
				],
				"metallicFactor":0,
				"roughnessFactor":0.5
			}
		},
		{
			"doubleSided":true,
			"name":"Material.003",
			"pbrMetallicRoughness":{
				"baseColorFactor":[
					0.007502928841859102,
					0.007502928841859102,
					0.007502928841859102,
					1
				],
				"metallicFactor":0,
				"roughnessFactor":0.5
			}
		},
		{
			"doubleSided":true,
			"name":"Material.001",
			"pbrMetallicRoughness":{
				"baseColorFactor":[
					0.04113610461354256,
					0.02627081237733364,
					0.01418115571141243,
					1
				],
				"metallicFactor":0
			}
		},
		{
			"doubleSided":true,
			"name":"Material.005",
			"pbrMetallicRoughness":{
				"baseColorFactor":[
					0.8001260757446289,
					0.06653943657875061,
					0.027891026809811592,
					1
				],
				"metallicFactor":0
			}
		}
	],
	"meshes":[
		{
			"name":"Cube.004",
			"primitives":[
				{
					"attributes":{
						"POSITION":0,
						"NORMAL":1,
						"TEXCOORD_0":2
					},
					"indices":3,
					"material":0
				}
			]
		},
		{
			"name":"Cube.005",
			"primitives":[
				{
					"attributes":{
						"POSITION":4,
						"NORMAL":5,
						"TEXCOORD_0":6
					},
					"indices":7,
					"material":1
				}
			]
		},
		{
			"name":"Cube.006",
			"primitives":[
				{
					"attributes":{
						"POSITION":8,
						"NORMAL":9,
						"TEXCOORD_0":10
					},
					"indices":7
				}
			]
		},
		{
			"name":"Cube.008",
			"primitives":[
				{
					"attributes":{
						"POSITION":11,
						"NORMAL":12,
						"TEXCOORD_0":13
					},
					"indices":7
				}
			]
		},
		{
			"name":"Cube.009",
			"primitives":[
				{
					"attributes":{
						"POSITION":14,
						"NORMAL":15,
						"TEXCOORD_0":16
					},
					"indices":17,
					"material":2
				}
			]
		},
		{
			"name":"Cube.010",
			"primitives":[
				{
					"attributes":{
						"POSITION":18,
						"NORMAL":19,
						"TEXCOORD_0":20
					},
					"indices":7
				}
			]
		},
		{
			"name":"Cube.001",
			"primitives":[
				{
					"attributes":{
						"POSITION":21,
						"NORMAL":22,
						"TEXCOORD_0":23
					},
					"indices":17,
					"material":3
				}
			]
		},
		{
			"name":"Circle",
			"primitives":[
				{
					"attributes":{
						"POSITION":24,
						"NORMAL":25,
						"TEXCOORD_0":26
					},
					"indices":27,
					"material":4
				}
			]
		},
		{
			"name":"Circle.001",
			"primitives":[
				{
					"attributes":{
						"POSITION":28,
						"NORMAL":29,
						"TEXCOORD_0":30
					},
					"indices":31,
					"material":5
				}
			]
		},
		{
			"name":"Sphere",
			"primitives":[
				{
					"attributes":{
						"POSITION":32,
						"NORMAL":33,
						"TEXCOORD_0":34
					},
					"indices":35,
					"material":6
				}
			]
		},
		{
			"name":"Cube.003",
			"primitives":[
				{
					"attributes":{
						"POSITION":36,
						"NORMAL":37,
						"TEXCOORD_0":38
					},
					"indices":7,
					"material":7
				}
			]
		}
	],
	"accessors":[
		{
			"bufferView":0,
			"componentType":5126,
			"count":456,
			"max":[
				1.4585838317871094,
				1.945487380027771,
				1.3275868892669678
			],
			"min":[
				-1.4585838317871094,
				-3.0357296466827393,
				-1.3275868892669678
			],
			"type":"VEC3"
		},
		{
			"bufferView":1,
			"componentType":5126,
			"count":456,
			"type":"VEC3"
		},
		{
			"bufferView":2,
			"componentType":5126,
			"count":456,
			"type":"VEC2"
		},
		{
			"bufferView":3,
			"componentType":5123,
			"count":816,
			"type":"SCALAR"
		},
		{
			"bufferView":4,
			"componentType":5126,
			"count":24,
			"max":[
				1,
				1,
				1
			],
			"min":[
				-1,
				-1,
				-1
			],
			"type":"VEC3"
		},
		{
			"bufferView":5,
			"componentType":5126,
			"count":24,
			"type":"VEC3"
		},
		{
			"bufferView":6,
			"componentType":5126,
			"count":24,
			"type":"VEC2"
		},
		{
			"bufferView":7,
			"componentType":5123,
			"count":36,
			"type":"SCALAR"
		},
		{
			"bufferView":8,
			"componentType":5126,
			"count":24,
			"max":[
				1,
				1,
				1
			],
			"min":[
				-1,
				-1,
				-1
			],
			"type":"VEC3"
		},
		{
			"bufferView":9,
			"componentType":5126,
			"count":24,
			"type":"VEC3"
		},
		{
			"bufferView":10,
			"componentType":5126,
			"count":24,
			"type":"VEC2"
		},
		{
			"bufferView":11,
			"componentType":5126,
			"count":24,
			"max":[
				1,
				1,
				1
			],
			"min":[
				-1,
				-1,
				-1
			],
			"type":"VEC3"
		},
		{
			"bufferView":12,
			"componentType":5126,
			"count":24,
			"type":"VEC3"
		},
		{
			"bufferView":13,
			"componentType":5126,
			"count":24,
			"type":"VEC2"
		},
		{
			"bufferView":14,
			"componentType":5126,
			"count":32,
			"max":[
				1.3206868171691895,
				1.7377851009368896,
				1.3206870555877686
			],
			"min":[
				-1.3206868171691895,
				-4.73612117767334,
				-1.3206865787506104
			],
			"type":"VEC3"
		},
		{
			"bufferView":15,
			"componentType":5126,
			"count":32,
			"type":"VEC3"
		},
		{
			"bufferView":16,
			"componentType":5126,
			"count":32,
			"type":"VEC2"
		},
		{
			"bufferView":17,
			"componentType":5123,
			"count":60,
			"type":"SCALAR"
		},
		{
			"bufferView":18,
			"componentType":5126,
			"count":24,
			"max":[
				1,
				1,
				1
			],
			"min":[
				-1,
				-1,
				-1
			],
			"type":"VEC3"
		},
		{
			"bufferView":19,
			"componentType":5126,
			"count":24,
			"type":"VEC3"
		},
		{
			"bufferView":20,
			"componentType":5126,
			"count":24,
			"type":"VEC2"
		},
		{
			"bufferView":21,
			"componentType":5126,
			"count":32,
			"max":[
				1.3206868171691895,
				1.7377851009368896,
				1.3206870555877686
			],
			"min":[
				-1.3206868171691895,
				-4.73612117767334,
				-1.3206865787506104
			],
			"type":"VEC3"
		},
		{
			"bufferView":22,
			"componentType":5126,
			"count":32,
			"type":"VEC3"
		},
		{
			"bufferView":23,
			"componentType":5126,
			"count":32,
			"type":"VEC2"
		},
		{
			"bufferView":24,
			"componentType":5126,
			"count":290,
			"max":[
				0.9999998807907104,
				-1.7317615747451782,
				1
			],
			"min":[
				-1.0000001192092896,
				-2.2635319232940674,
				-1
			],
			"type":"VEC3"
		},
		{
			"bufferView":25,
			"componentType":5126,
			"count":290,
			"type":"VEC3"
		},
		{
			"bufferView":26,
			"componentType":5126,
			"count":290,
			"type":"VEC2"
		},
		{
			"bufferView":27,
			"componentType":5123,
			"count":960,
			"type":"SCALAR"
		},
		{
			"bufferView":28,
			"componentType":5126,
			"count":290,
			"max":[
				0.9999998807907104,
				-1.7317615747451782,
				1
			],
			"min":[
				-1.0000001192092896,
				-2.2635319232940674,
				-1
			],
			"type":"VEC3"
		},
		{
			"bufferView":29,
			"componentType":5126,
			"count":290,
			"type":"VEC3"
		},
		{
			"bufferView":30,
			"componentType":5126,
			"count":290,
			"type":"VEC2"
		},
		{
			"bufferView":31,
			"componentType":5123,
			"count":960,
			"type":"SCALAR"
		},
		{
			"bufferView":32,
			"componentType":5126,
			"count":864,
			"max":[
				0.7719135880470276,
				0.6332449316978455,
				0.8465830683708191
			],
			"min":[
				-0.7719133496284485,
				-0.00024822354316711426,
				-0.6972439885139465
			],
			"type":"VEC3"
		},
		{
			"bufferView":33,
			"componentType":5126,
			"count":864,
			"type":"VEC3"
		},
		{
			"bufferView":34,
			"componentType":5126,
			"count":864,
			"type":"VEC2"
		},
		{
			"bufferView":35,
			"componentType":5123,
			"count":1248,
			"type":"SCALAR"
		},
		{
			"bufferView":36,
			"componentType":5126,
			"count":24,
			"max":[
				1,
				1,
				1
			],
			"min":[
				-1,
				-1,
				-1
			],
			"type":"VEC3"
		},
		{
			"bufferView":37,
			"componentType":5126,
			"count":24,
			"type":"VEC3"
		},
		{
			"bufferView":38,
			"componentType":5126,
			"count":24,
			"type":"VEC2"
		}
	],
	"bufferViews":[
		{
			"buffer":0,
			"byteLength":5472,
			"byteOffset":0,
			"target":34962
		},
		{
			"buffer":0,
			"byteLength":5472,
			"byteOffset":5472,
			"target":34962
		},
		{
			"buffer":0,
			"byteLength":3648,
			"byteOffset":10944,
			"target":34962
		},
		{
			"buffer":0,
			"byteLength":1632,
			"byteOffset":14592,
			"target":34963
		},
		{
			"buffer":0,
			"byteLength":288,
			"byteOffset":16224,
			"target":34962
		},
		{
			"buffer":0,
			"byteLength":288,
			"byteOffset":16512,
			"target":34962
		},
		{
			"buffer":0,
			"byteLength":192,
			"byteOffset":16800,
			"target":34962
		},
		{
			"buffer":0,
			"byteLength":72,
			"byteOffset":16992,
			"target":34963
		},
		{
			"buffer":0,
			"byteLength":288,
			"byteOffset":17064,
			"target":34962
		},
		{
			"buffer":0,
			"byteLength":288,
			"byteOffset":17352,
			"target":34962
		},
		{
			"buffer":0,
			"byteLength":192,
			"byteOffset":17640,
			"target":34962
		},
		{
			"buffer":0,
			"byteLength":288,
			"byteOffset":17832,
			"target":34962
		},
		{
			"buffer":0,
			"byteLength":288,
			"byteOffset":18120,
			"target":34962
		},
		{
			"buffer":0,
			"byteLength":192,
			"byteOffset":18408,
			"target":34962
		},
		{
			"buffer":0,
			"byteLength":384,
			"byteOffset":18600,
			"target":34962
		},
		{
			"buffer":0,
			"byteLength":384,
			"byteOffset":18984,
			"target":34962
		},
		{
			"buffer":0,
			"byteLength":256,
			"byteOffset":19368,
			"target":34962
		},
		{
			"buffer":0,
			"byteLength":120,
			"byteOffset":19624,
			"target":34963
		},
		{
			"buffer":0,
			"byteLength":288,
			"byteOffset":19744,
			"target":34962
		},
		{
			"buffer":0,
			"byteLength":288,
			"byteOffset":20032,
			"target":34962
		},
		{
			"buffer":0,
			"byteLength":192,
			"byteOffset":20320,
			"target":34962
		},
		{
			"buffer":0,
			"byteLength":384,
			"byteOffset":20512,
			"target":34962
		},
		{
			"buffer":0,
			"byteLength":384,
			"byteOffset":20896,
			"target":34962
		},
		{
			"buffer":0,
			"byteLength":256,
			"byteOffset":21280,
			"target":34962
		},
		{
			"buffer":0,
			"byteLength":3480,
			"byteOffset":21536,
			"target":34962
		},
		{
			"buffer":0,
			"byteLength":3480,
			"byteOffset":25016,
			"target":34962
		},
		{
			"buffer":0,
			"byteLength":2320,
			"byteOffset":28496,
			"target":34962
		},
		{
			"buffer":0,
			"byteLength":1920,
			"byteOffset":30816,
			"target":34963
		},
		{
			"buffer":0,
			"byteLength":3480,
			"byteOffset":32736,
			"target":34962
		},
		{
			"buffer":0,
			"byteLength":3480,
			"byteOffset":36216,
			"target":34962
		},
		{
			"buffer":0,
			"byteLength":2320,
			"byteOffset":39696,
			"target":34962
		},
		{
			"buffer":0,
			"byteLength":1920,
			"byteOffset":42016,
			"target":34963
		},
		{
			"buffer":0,
			"byteLength":10368,
			"byteOffset":43936,
			"target":34962
		},
		{
			"buffer":0,
			"byteLength":10368,
			"byteOffset":54304,
			"target":34962
		},
		{
			"buffer":0,
			"byteLength":6912,
			"byteOffset":64672,
			"target":34962
		},
		{
			"buffer":0,
			"byteLength":2496,
			"byteOffset":71584,
			"target":34963
		},
		{
			"buffer":0,
			"byteLength":288,
			"byteOffset":74080,
			"target":34962
		},
		{
			"buffer":0,
			"byteLength":288,
			"byteOffset":74368,
			"target":34962
		},
		{
			"buffer":0,
			"byteLength":192,
			"byteOffset":74656,
			"target":34962
		}
	],
	"buffers":[
		{
			"byteLength":74848,
			"uri":"person.bin"
		}
	]
}
