{
	"asset":{
		"generator":"Khronos glTF Blender I/O v4.3.47",
		"version":"2.0"
	},
	"extensionsUsed":[
		"KHR_materials_unlit"
	],
	"scene":0,
	"scenes":[
		{
			"name":"Scene",
			"nodes":[
				2
			]
		}
	],
	"nodes":[
		{
			"mesh":0,
			"name":"Object_2",
			"rotation":[
				-0.17064586281776428,
				0,
				0,
				0.9853324294090271
			],
			"translation":[
				0.31141066551208496,
				0.1367844045162201,
				0.10918549448251724
			]
		},
		{
			"children":[
				0
			],
			"name":"model_mesh.obj.cleaner.materialmerger.gles"
		},
		{
			"children":[
				1
			],
			"name":"Sketchfab_model",
			"rotation":[
				-0.7071069478988647,
				0,
				0,
				0.7071066498756409
			],
			"scale":[
				15.218915939331055,
				15.218917846679688,
				15.218917846679688
			]
		}
	],
	"animations":[
		{
			"channels":[
				{
					"sampler":0,
					"target":{
						"node":0,
						"path":"weights"
					}
				}
			],
			"name":"defalte",
			"samplers":[
				{
					"input":6,
					"interpolation":"LINEAR",
					"output":7
				}
			]
		},
		{
			"channels":[
				{
					"sampler":0,
					"target":{
						"node":0,
						"path":"weights"
					}
				}
			],
			"name":"smile",
			"samplers":[
				{
					"input":8,
					"interpolation":"LINEAR",
					"output":9
				}
			]
		}
	],
	"materials":[
		{
			"doubleSided":true,
			"extensions":{
				"KHR_materials_unlit":{}
			},
			"name":"material_0",
			"pbrMetallicRoughness":{
				"baseColorTexture":{
					"index":0
				},
				"metallicFactor":0,
				"roughnessFactor":0.9
			}
		}
	],
	"meshes":[
		{
			"extras":{
				"targetNames":[
					"Key 3"
				]
			},
			"name":"Object_0",
			"primitives":[
				{
					"attributes":{
						"POSITION":0,
						"NORMAL":1,
						"TEXCOORD_0":2
					},
					"indices":3,
					"material":0,
					"targets":[
						{
							"POSITION":4,
							"NORMAL":5
						}
					]
				}
			],
			"weights":[
				0
			]
		}
	],
	"textures":[
		{
			"sampler":0,
			"source":0
		}
	],
	"images":[
		{
			"mimeType":"image/jpeg",
			"name":"material_0_baseColor",
			"uri":"material_0_baseColor.jpg"
		}
	],
	"accessors":[
		{
			"bufferView":0,
			"componentType":5126,
			"count":31665,
			"max":[
				0.244838148355484,
				0.1708611398935318,
				0.2724186182022095
			],
			"min":[
				-0.25065985321998596,
				-0.19159884750843048,
				-0.13178037106990814
			],
			"type":"VEC3"
		},
		{
			"bufferView":1,
			"componentType":5126,
			"count":31665,
			"type":"VEC3"
		},
		{
			"bufferView":2,
			"componentType":5126,
			"count":31665,
			"type":"VEC2"
		},
		{
			"bufferView":3,
			"componentType":5123,
			"count":120000,
			"type":"SCALAR"
		},
		{
			"bufferView":4,
			"componentType":5126,
			"count":31665,
			"max":[
				0.009275827556848526,
				0.0022830814123153687,
				0.01437404751777649
			],
			"min":[
				-0.00511724129319191,
				-0.0021211206912994385,
				2.3096799850463867e-07
			],
			"type":"VEC3"
		},
		{
			"bufferView":5,
			"componentType":5126,
			"count":31665,
			"type":"VEC3"
		},
		{
			"bufferView":6,
			"componentType":5126,
			"count":67,
			"max":[
				2.75
			],
			"min":[
				0
			],
			"type":"SCALAR"
		},
		{
			"bufferView":7,
			"componentType":5126,
			"count":67,
			"type":"SCALAR"
		},
		{
			"bufferView":8,
			"componentType":5126,
			"count":105,
			"max":[
				4.333333333333333
			],
			"min":[
				0
			],
			"type":"SCALAR"
		},
		{
			"bufferView":9,
			"componentType":5126,
			"count":105,
			"type":"SCALAR"
		}
	],
	"bufferViews":[
		{
			"buffer":0,
			"byteLength":379980,
			"byteOffset":0,
			"target":34962
		},
		{
			"buffer":0,
			"byteLength":379980,
			"byteOffset":379980,
			"target":34962
		},
		{
			"buffer":0,
			"byteLength":253320,
			"byteOffset":759960,
			"target":34962
		},
		{
			"buffer":0,
			"byteLength":240000,
			"byteOffset":1013280,
			"target":34963
		},
		{
			"buffer":0,
			"byteLength":379980,
			"byteOffset":1253280,
			"target":34962
		},
		{
			"buffer":0,
			"byteLength":379980,
			"byteOffset":1633260,
			"target":34962
		},
		{
			"buffer":0,
			"byteLength":268,
			"byteOffset":2013240
		},
		{
			"buffer":0,
			"byteLength":268,
			"byteOffset":2013508
		},
		{
			"buffer":0,
			"byteLength":420,
			"byteOffset":2013776
		},
		{
			"buffer":0,
			"byteLength":420,
			"byteOffset":2014196
		}
	],
	"samplers":[
		{
			"magFilter":9729,
			"minFilter":9987
		}
	],
	"buffers":[
		{
			"byteLength":2014616,
			"uri":"final1.bin"
		}
	]
}
