{
	"asset":{
		"generator":"Khronos glTF Blender I/O v4.3.47",
		"version":"2.0"
	},
	"extensionsUsed":[
		"KHR_materials_unlit"
	],
	"scene":0,
	"scenes":[
		{
			"name":"Scene",
			"nodes":[
				0
			]
		}
	],
	"nodes":[
		{
			"mesh":0,
			"name":"Object_2",
			"rotation":[
				-0.8010113835334778,
				0.16461394727230072,
				0.13906742632389069,
				0.5585187673568726
			],
			"scale":[
				21.894981384277344,
				21.894983291625977,
				21.894981384277344
			],
			"translation":[
				4.898515701293945,
				2.1172473430633545,
				-1.3520574569702148
			]
		}
	],
	"animations":[
		{
			"channels":[
				{
					"sampler":0,
					"target":{
						"node":0,
						"path":"weights"
					}
				}
			],
			"name":"grin",
			"samplers":[
				{
					"input":10,
					"interpolation":"LINEAR",
					"output":11
				}
			]
		},
		{
			"channels":[
				{
					"sampler":0,
					"target":{
						"node":0,
						"path":"weights"
					}
				}
			],
			"name":"deflate",
			"samplers":[
				{
					"input":12,
					"interpolation":"LINEAR",
					"output":13
				}
			]
		},
		{
			"channels":[
				{
					"sampler":0,
					"target":{
						"node":0,
						"path":"weights"
					}
				}
			],
			"name":"smile",
			"samplers":[
				{
					"input":14,
					"interpolation":"LINEAR",
					"output":15
				}
			]
		},
		{
			"channels":[
				{
					"sampler":0,
					"target":{
						"node":0,
						"path":"weights"
					}
				}
			],
			"name":"shake",
			"samplers":[
				{
					"input":16,
					"interpolation":"LINEAR",
					"output":17
				}
			]
		},
		{
			"channels":[
				{
					"sampler":0,
					"target":{
						"node":0,
						"path":"weights"
					}
				}
			],
			"name":"pullup",
			"samplers":[
				{
					"input":18,
					"interpolation":"LINEAR",
					"output":19
				}
			]
		},
		{
			"channels":[
				{
					"sampler":0,
					"target":{
						"node":0,
						"path":"weights"
					}
				}
			],
			"name":"pull",
			"samplers":[
				{
					"input":10,
					"interpolation":"LINEAR",
					"output":20
				}
			]
		},
		{
			"channels":[
				{
					"sampler":0,
					"target":{
						"node":0,
						"path":"weights"
					}
				}
			],
			"name":"pull-left",
			"samplers":[
				{
					"input":16,
					"interpolation":"LINEAR",
					"output":21
				}
			]
		},
		{
			"channels":[
				{
					"sampler":0,
					"target":{
						"node":0,
						"path":"weights"
					}
				}
			],
			"name":"pull-right",
			"samplers":[
				{
					"input":22,
					"interpolation":"LINEAR",
					"output":23
				}
			]
		},
		{
			"channels":[
				{
					"sampler":0,
					"target":{
						"node":0,
						"path":"weights"
					}
				}
			],
			"name":"flatten",
			"samplers":[
				{
					"input":24,
					"interpolation":"LINEAR",
					"output":25
				}
			]
		}
	],
	"materials":[
		{
			"doubleSided":true,
			"extensions":{
				"KHR_materials_unlit":{}
			},
			"name":"material_0",
			"pbrMetallicRoughness":{
				"baseColorTexture":{
					"index":0
				},
				"metallicFactor":0,
				"roughnessFactor":0.9
			}
		}
	],
	"meshes":[
		{
			"extras":{
				"targetNames":[
					"Key 8",
					"Key 9"
				]
			},
			"name":"Object_0",
			"primitives":[
				{
					"attributes":{
						"POSITION":0,
						"NORMAL":1,
						"TEXCOORD_0":2,
						"COLOR_0":3,
						"COLOR_1":4
					},
					"indices":5,
					"material":0,
					"targets":[
						{
							"POSITION":6,
							"NORMAL":7
						},
						{
							"POSITION":8,
							"NORMAL":9
						}
					]
				}
			],
			"weights":[
				0,
				0
			]
		}
	],
	"textures":[
		{
			"sampler":0,
			"source":0
		}
	],
	"images":[
		{
			"mimeType":"image/jpeg",
			"name":"material_0_baseColor",
			"uri":"material_0_baseColor.jpg"
		}
	],
	"accessors":[
		{
			"bufferView":0,
			"componentType":5126,
			"count":31667,
			"max":[
				0.244838148355484,
				0.1708611398935318,
				0.2724186182022095
			],
			"min":[
				-0.25065985321998596,
				-0.19159884750843048,
				-0.13178037106990814
			],
			"type":"VEC3"
		},
		{
			"bufferView":1,
			"componentType":5126,
			"count":31667,
			"type":"VEC3"
		},
		{
			"bufferView":2,
			"componentType":5126,
			"count":31667,
			"type":"VEC2"
		},
		{
			"bufferView":3,
			"componentType":5121,
			"count":31667,
			"normalized":true,
			"type":"VEC4"
		},
		{
			"bufferView":4,
			"componentType":5123,
			"count":31667,
			"normalized":true,
			"type":"VEC4"
		},
		{
			"bufferView":5,
			"componentType":5123,
			"count":120000,
			"type":"SCALAR"
		},
		{
			"bufferView":6,
			"componentType":5126,
			"count":31667,
			"max":[
				0.35416698455810547,
				0.04017253220081329,
				0.12644657492637634
			],
			"min":[
				0.1220848560333252,
				0.013847872614860535,
				0.04358738288283348
			],
			"type":"VEC3"
		},
		{
			"bufferView":7,
			"componentType":5126,
			"count":31667,
			"type":"VEC3"
		},
		{
			"bufferView":8,
			"componentType":5126,
			"count":31667,
			"max":[
				0.007816854864358902,
				0.06956253945827484,
				0.009556353092193604
			],
			"min":[
				-0.025148965418338776,
				-0.23055556416511536,
				-0.03154632821679115
			],
			"type":"VEC3"
		},
		{
			"bufferView":9,
			"componentType":5126,
			"count":31667,
			"type":"VEC3"
		},
		{
			"bufferView":10,
			"componentType":5126,
			"count":2,
			"max":[
				1.0416666666666667
			],
			"min":[
				0
			],
			"type":"SCALAR"
		},
		{
			"bufferView":11,
			"componentType":5126,
			"count":4,
			"type":"SCALAR"
		},
		{
			"bufferView":12,
			"componentType":5126,
			"count":67,
			"max":[
				2.75
			],
			"min":[
				0
			],
			"type":"SCALAR"
		},
		{
			"bufferView":13,
			"componentType":5126,
			"count":134,
			"type":"SCALAR"
		},
		{
			"bufferView":14,
			"componentType":5126,
			"count":105,
			"max":[
				4.333333333333333
			],
			"min":[
				0
			],
			"type":"SCALAR"
		},
		{
			"bufferView":15,
			"componentType":5126,
			"count":210,
			"type":"SCALAR"
		},
		{
			"bufferView":16,
			"componentType":5126,
			"count":2,
			"max":[
				0.9583333333333334
			],
			"min":[
				0
			],
			"type":"SCALAR"
		},
		{
			"bufferView":17,
			"componentType":5126,
			"count":4,
			"type":"SCALAR"
		},
		{
			"bufferView":18,
			"componentType":5126,
			"count":2,
			"max":[
				1.0833333333333333
			],
			"min":[
				0
			],
			"type":"SCALAR"
		},
		{
			"bufferView":19,
			"componentType":5126,
			"count":4,
			"type":"SCALAR"
		},
		{
			"bufferView":20,
			"componentType":5126,
			"count":4,
			"type":"SCALAR"
		},
		{
			"bufferView":21,
			"componentType":5126,
			"count":4,
			"type":"SCALAR"
		},
		{
			"bufferView":22,
			"componentType":5126,
			"count":25,
			"max":[
				1
			],
			"min":[
				0
			],
			"type":"SCALAR"
		},
		{
			"bufferView":23,
			"componentType":5126,
			"count":50,
			"type":"SCALAR"
		},
		{
			"bufferView":24,
			"componentType":5126,
			"count":24,
			"max":[
				0.9583333333333334
			],
			"min":[
				0
			],
			"type":"SCALAR"
		},
		{
			"bufferView":25,
			"componentType":5126,
			"count":48,
			"type":"SCALAR"
		}
	],
	"bufferViews":[
		{
			"buffer":0,
			"byteLength":380004,
			"byteOffset":0,
			"target":34962
		},
		{
			"buffer":0,
			"byteLength":380004,
			"byteOffset":380004,
			"target":34962
		},
		{
			"buffer":0,
			"byteLength":253336,
			"byteOffset":760008,
			"target":34962
		},
		{
			"buffer":0,
			"byteLength":126668,
			"byteOffset":1013344,
			"target":34962
		},
		{
			"buffer":0,
			"byteLength":253336,
			"byteOffset":1140012,
			"target":34962
		},
		{
			"buffer":0,
			"byteLength":240000,
			"byteOffset":1393348,
			"target":34963
		},
		{
			"buffer":0,
			"byteLength":380004,
			"byteOffset":1633348,
			"target":34962
		},
		{
			"buffer":0,
			"byteLength":380004,
			"byteOffset":2013352,
			"target":34962
		},
		{
			"buffer":0,
			"byteLength":380004,
			"byteOffset":2393356,
			"target":34962
		},
		{
			"buffer":0,
			"byteLength":380004,
			"byteOffset":2773360,
			"target":34962
		},
		{
			"buffer":0,
			"byteLength":8,
			"byteOffset":3153364
		},
		{
			"buffer":0,
			"byteLength":16,
			"byteOffset":3153372
		},
		{
			"buffer":0,
			"byteLength":268,
			"byteOffset":3153388
		},
		{
			"buffer":0,
			"byteLength":536,
			"byteOffset":3153656
		},
		{
			"buffer":0,
			"byteLength":420,
			"byteOffset":3154192
		},
		{
			"buffer":0,
			"byteLength":840,
			"byteOffset":3154612
		},
		{
			"buffer":0,
			"byteLength":8,
			"byteOffset":3155452
		},
		{
			"buffer":0,
			"byteLength":16,
			"byteOffset":3155460
		},
		{
			"buffer":0,
			"byteLength":8,
			"byteOffset":3155476
		},
		{
			"buffer":0,
			"byteLength":16,
			"byteOffset":3155484
		},
		{
			"buffer":0,
			"byteLength":16,
			"byteOffset":3155500
		},
		{
			"buffer":0,
			"byteLength":16,
			"byteOffset":3155516
		},
		{
			"buffer":0,
			"byteLength":100,
			"byteOffset":3155532
		},
		{
			"buffer":0,
			"byteLength":200,
			"byteOffset":3155632
		},
		{
			"buffer":0,
			"byteLength":96,
			"byteOffset":3155832
		},
		{
			"buffer":0,
			"byteLength":192,
			"byteOffset":3155928
		}
	],
	"samplers":[
		{
			"magFilter":9729,
			"minFilter":9987
		}
	],
	"buffers":[
		{
			"byteLength":3156120,
			"uri":"vic.bin"
		}
	]
}
